PathFileType	4	(X/Y/Z)	Walk7.trc
DataRate	CameraRate	NumFrames	NumMarkers	Units	OrigDataRate	OrigDataStartFrame	OrigNumFrames
200.000000	200.000000	8	55	mm	200.000000	516	591
Frame#	Times		RFA1		RASI		RUA1		RACR1		RBHD		C7		LFA1		RTH2		RCAR		RTH3		RBack		RElbow		RTB3		RTB1		LElbowM		RMT1		RMT5		RLFC		LTH2		RTB2		RTH4		LTH3		LACR1		RTB4		LElbow		LPSI		RMMAL		LWRU		CLAV		LTH4		RWRR		RPSI		LBHD		LTB1		T10		LLFC		RToe		LFHD		RWRU		LTB3		RTH1		LTB2		LTB4		LMT1		LTH1		LCAL		LMT5		LWRR		LLMAL		RElbowM		RLMAL		LToe		RCAL		LUA1		LCAR
			X1	Y1	Z1	X2	Y2	Z2	X3	Y3	Z3	X4	Y4	Z4	X5	Y5	Z5	X6	Y6	Z6	X7	Y7	Z7	X8	Y8	Z8	X9	Y9	Z9	X10	Y10	Z10	X11	Y11	Z11	X12	Y12	Z12	X13	Y13	Z13	X14	Y14	Z14	X15	Y15	Z15	X16	Y16	Z16	X17	Y17	Z17	X18	Y18	Z18	X19	Y19	Z19	X20	Y20	Z20	X21	Y21	Z21	X22	Y22	Z22	X23	Y23	Z23	X24	Y24	Z24	X25	Y25	Z25	X26	Y26	Z26	X27	Y27	Z27	X28	Y28	Z28	X29	Y29	Z29	X30	Y30	Z30	X31	Y31	Z31	X32	Y32	Z32	X33	Y33	Z33	X34	Y34	Z34	X35	Y35	Z35	X36	Y36	Z36	X37	Y37	Z37	X38	Y38	Z38	X39	Y39	Z39	X40	Y40	Z40	X41	Y41	Z41	X42	Y42	Z42	X43	Y43	Z43	X44	Y44	Z44	X45	Y45	Z45	X46	Y46	Z46	X47	Y47	Z47	X48	Y48	Z48	X49	Y49	Z49	X50	Y50	Z50	X51	Y51	Z51	X52	Y52	Z52	X53	Y53	Z53	X54	Y54	Z54	X55	Y55	Z55

516	2.58	802.52	915.36	568.49	986.43	927.63	423.09	865.33	1176.6	525.51	944.71	1361.1	459.5	933.05	1551.8	398.24	894.17	1420.2	311.37	982.66	994.04	-30.938	1075.5	672.09	441.72	794.8	727.06	573.48	1050.3	556.19	447.32	812.9	1324.3	389.35	795.99	1060.6	538.66	1122.2	183.51	348.88	1130.1	374.08	348.73	844.97	1100	76.489	1218.1	37.985	310.91	1190.5	30.979	399.44	1088.4	461.75	433.82	980.95	616.28	131.69	1120.9	278.18	422.19	1013.4	640.48	466.01	902.54	533.07	107.42	943.84	1420.5	137.79	1128.9	281.09	350.49	868.4	1110.7	-3.1768	805.29	938.39	219.48	1089.4	94.086	306.57	991.85	875.06	-28.94	1029.1	1337.3	299.8	911.63	622.16	97.46	837.62	774.76	539.3	802.57	941.69	325.79	923.22	1560.9	259.04	834.7	319.45	172.48	795.76	1112.6	273.61	864.48	424.28	118.28	1269.9	36.24	332.76	1108	1579.2	272.59	764.21	787.91	559.34	680.5	215.62	178.79	975.42	727.47	479.31	735.86	295.18	112.95	756.34	268.59	176.41	594.23	43.099	227.06	922.81	719.06	93.523	482.7	202.41	200.71	580.99	55.858	145.01	1057.4	906.83	8.9534	541.81	192.16	152.93	784.85	1040.6	444.66	1067.4	78.264	393.88	629.78	23.66	208.72	1017	31.02	354.36	904.66	1236	26.786	1073.4	859.73	-41.828
517	2.585	812.03	915.83	569.44	992.79	928.93	423.85	873.93	1177.1	526.48	952.29	1361.9	460.22	939.22	1552.1	398.77	900.96	1421.1	312.22	987.88	994.53	-29.73	1080.9	671.94	441.63	806.38	727.42	574.31	1054.4	555.86	446.59	819.94	1325.1	390.91	804.84	1060.7	539.75	1123.3	183.16	348.01	1132.3	373.54	347.92	851.27	1102	78.34	1218.1	37.547	310.09	1190.6	31.075	399.16	1091.9	461.57	433.63	991.46	616.79	131.99	1123	277.81	421.4	1018.3	640.51	465.82	914.27	532.16	108.34	950.49	1421.8	138.92	1130.6	280.63	349.69	874.23	1111.9	-2.3628	811.41	938.97	220.57	1089.6	93.793	305.99	995.93	875.45	-27.662	1035.8	1338.2	300.33	921.77	621.49	98.391	848.11	774.97	539.79	808.98	942.41	326.71	930.23	1561.8	259.72	847.39	318.2	173.03	802.2	1113.8	274.38	877.66	423.11	119.25	1270.4	35.671	332.23	1114	1580.4	274.74	774.63	788	560.27	690.78	217.76	179.17	981.39	728.29	479.63	748.01	296.33	113.53	767.89	268.98	177.03	601.55	46.777	226.4	931.08	718.7	94.712	492.88	208.9	200.09	589.33	61.086	144.83	1061.9	906.64	9.9927	551.75	197.7	153.2	793.52	1041.2	445.66	1067.7	78.19	393.48	635.72	24.902	206.06	1017	31.046	354.24	911.32	1237.3	27.76	1077.4	859.36	-41.011
518	2.59	821.93	915.92	570.58	999.27	930.3	424.33	882.11	1177.6	527.47	959.78	1362.6	460.82	945.5	1552.6	399.53	907.68	1422	313.32	992.95	995.08	-28.689	1086	671.78	441.38	817.07	727.45	575.08	1058.7	555.59	445.93	827.15	1325.9	392.3	813.46	1060.9	540.8	1124	182.76	347.39	1134	373	347.39	857.29	1104	80.16	1218.2	37.144	309.69	1190.7	31.018	398.82	1095.1	461.47	433.37	1001.5	617.38	132.49	1125.1	277.42	420.76	1023.1	640.84	465.49	925.93	531.56	109.18	957.02	1423.1	139.81	1132	280.14	348.99	880	1113.3	-0.88488	817.69	939.76	221.41	1089.7	93.482	305.55	1000	875.78	-26.399	1042.3	1339	300.65	931.61	621.11	99.503	858.65	775.35	540.43	815.33	943.48	327.44	937.06	1562.7	260.52	860.1	317.51	174.01	808.4	1114.8	275.24	890.91	422.11	120.3	1270.7	35.339	331.78	1121.1	1581.2	276.25	785.36	788.08	561.42	701.67	220.39	179.97	987.06	729.06	480.11	760.47	297.28	114.16	779.83	269.9	177.88	611	50.687	225.33	939.2	718.43	96.151	503.4	215.47	199.09	598.3	67.139	145.37	1066.3	906.4	11.051	562.35	202.96	153.29	802.05	1041.4	446.56	1068	78.127	393.18	644.24	27.776	203.76	1016.9	31.087	354.12	917.81	1238.5	28.705	1081.2	859	-40.045
519	2.595	831.68	916.1	571.71	1005.5	931.59	425.03	890.5	1178	528.29	967.34	1363.3	461.38	952.03	1553.2	400.27	914.36	1423	314.42	997.97	995.66	-27.575	1090.9	671.87	441.16	828	727.11	575.67	1062.9	555.55	445.43	834.1	1326.8	393.51	822.47	1061.1	542.09	1124.7	182.27	347.01	1135.4	372.45	347.02	863.19	1106	81.645	1218.5	37.014	309.51	1190.8	30.907	398.63	1098.3	461.42	433.07	1011.5	618.16	132.86	1127	277.02	420.19	1028.1	641.5	465.41	937.44	531.15	110.02	963.49	1424.3	140.55	1133.4	279.64	348.54	885.97	1115.1	0.85314	823.6	940.62	222.16	1089.8	93.122	305.26	1003.9	876.08	-25.341	1048.9	1339.8	301.09	941.51	620.78	100.51	869.45	774.75	540.57	821.46	944.69	328.06	944.04	1563.8	261.29	872.79	317.79	175.4	814.61	1115.9	276.01	903.97	421.31	121.27	1271	34.985	331.29	1128.2	1582	277.55	795.99	788.19	562.48	712.78	223.25	181.18	992.78	729.83	480.28	773.13	298.12	114.94	791.55	271.45	179.24	621.1	54.934	224.54	947.31	718.16	97.293	514.36	221.29	199.05	608.22	71.704	144.97	1070.4	906.16	12.118	573.51	207.73	153.51	810.63	1041.4	448.01	1068.2	78.109	392.87	654.23	32.135	203.68	1017	31.02	353.84	924.29	1239.8	29.741	1084.6	858.57	-38.967
520	2.6	841.81	916.21	572.78	1011.8	932.8	425.58	899.22	1178.6	528.98	974.97	1364	461.98	958.54	1553.8	401.16	920.94	1424	315.4	1002.8	996.23	-26.345	1096.1	671.93	440.86	839.17	727.65	576.9	1066.9	555.77	445.09	841.25	1327.7	394.99	831.28	1061.6	543.29	1125.6	181.89	346.69	1137.1	371.88	346.71	869	1107.9	82.828	1218.6	36.641	309.08	1190.8	30.865	398.53	1101.4	461.46	432.81	1021.5	619.38	133.29	1128.7	276.56	419.94	1033	642.26	465.83	948.77	531.02	110.88	969.93	1425.6	141.42	1134.5	279.13	348.33	891.55	1116.1	1.6844	829.43	941.42	223.05	1089.9	92.844	305.07	1007.9	876.52	-24.242	1055.5	1340.6	301.3	951.26	620.87	101.29	880.27	774.46	540.21	827.14	946.27	328.22	950.92	1565	262.08	885.55	318.58	177.17	820.91	1117.2	276.99	917.07	420.91	122.15	1271.4	34.598	331.04	1135.2	1583.2	278.79	806.86	788.06	563.72	723.7	226.02	182.73	998.51	730.74	480.54	786.27	298.92	115.64	803.55	273.43	180.72	631.59	58.935	224.4	955.23	718.16	98.334	525.57	226.53	199.68	618.53	76.151	144.56	1074.6	905.95	13.114	585.08	212.43	153.9	819.26	1041.6	449.33	1068.6	78.103	392.46	664.79	36.503	204.55	1016.9	31.083	353.89	930.49	1241.1	30.556	1088	858.2	-37.772
521	2.605	851.91	916.67	573.73	1018	933.96	426.05	907.91	1179.1	529.7	982.27	1364.8	462.49	965.08	1554.5	401.82	927.46	1425.1	316.23	1007.4	996.78	-25.341	1100.7	671.94	440.62	850.64	728.03	578.14	1070.7	556.15	445	848.12	1328.7	396.65	840.02	1062	544.65	1126.6	181.61	346.52	1138.9	371.43	346.71	874.64	1110	83.928	1218.6	36.376	308.75	1190.9	30.88	398.46	1104.5	461.54	432.53	1031.3	621.04	133.87	1130.2	276.14	419.9	1037.7	643.06	466.39	959.9	531.25	111.51	976.06	1426.8	142.11	1136.2	278.75	348.16	897.11	1117.7	2.7614	835.4	942.49	223.81	1090	92.712	304.93	1011.6	877.1	-23.174	1062	1341.5	301.52	961.01	621.02	101.82	891.16	775.07	539.76	833.13	947.41	329.04	957.86	1566.1	262.9	897.93	319.55	179.16	827.02	1118.6	277.87	930.11	421.19	122.88	1271.6	34.356	331.13	1142.1	1584.4	280.13	817.85	788.21	565.03	735.25	228.9	184	1004.2	731.67	480.72	799.49	300.32	116.56	815.77	275.51	182.22	642.01	62.776	224.33	962.95	718.61	99.354	537.49	230.57	200.4	629.46	80.62	144.16	1078.6	905.86	14.202	597.12	216.64	154.28	827.64	1042	450.84	1068.4	77.802	392.11	675.99	39.813	204.31	1017	31.134	353.84	936.87	1242.5	31.413	1091.6	857.91	-36.652
522	2.61	861.99	917.12	574.77	1024.3	935.21	426.5	916.37	1179.7	530.62	989.65	1365.7	462.74	971.42	1555.4	402.51	934.05	1426.2	317.09	1012.1	997.39	-24.343	1105.5	672.26	440.36	862.48	728.52	578.98	1074.6	556.56	445.24	855.24	1329.8	398.01	848.98	1062.2	546.08	1127.4	181.26	346.55	1140.9	371.09	346.78	880.17	1111.8	85.133	1218.6	36.27	308.57	1191	30.88	398.36	1107.4	461.56	432.55	1041	622.92	134.33	1131.4	275.7	420.05	1042.7	644.03	466.9	970.91	531.83	112.22	982.29	1428.3	142.81	1137.7	278.38	348.14	902.53	1119.1	3.7388	841.08	943.55	224.68	1090.1	92.655	304.82	1015.2	877.99	-22.273	1068.4	1342.4	301.63	970.43	621.49	102.55	902.32	776.02	539.86	839.67	948.89	330.4	964.71	1567.4	263.55	910.77	321.09	180.63	833.02	1119.9	278.82	943.35	422.07	123.6	1271.8	34.41	331.39	1149.1	1585.3	281.49	829.17	788.47	566.08	747.58	231.65	184.91	1009.6	732.51	480.82	812.7	302.29	117.67	828.56	277.5	183.51	653.14	66.103	224.13	970.82	719.27	99.964	549.74	234.56	201.26	640.9	84.711	144.1	1082.8	905.99	15.256	609.24	220.47	154.74	835.83	1042.4	452.2	1068.6	77.443	391.41	687.12	43.154	203.33	1016.9	31.267	353.92	942.88	1243.6	32.156	1095.4	857.46	-35.461
523	2.615	872.07	917.38	576.27	1030.6	936.24	426.77	924.76	1180.5	531.51	996.96	1366.6	462.89	977.75	1556.1	403.07	940.41	1427.5	317.66	1016.7	998.01	-23.396	1110.2	672.49	439.95	874.54	728.97	579.88	1078.5	556.88	446.07	862.05	1330.8	399.18	858.01	1062.4	547.29	1128	180.95	346.81	1143	370.79	346.97	885.65	1113.6	86.116	1218.6	36.267	308.46	1190.6	31.206	397.75	1110.1	461.55	432.58	1050.4	625.08	134.81	1132.4	275.31	420.29	1047.3	644.86	467.32	981.72	532.85	112.75	988.44	1429.6	143.26	1139	278	348.42	907.98	1120.4	4.5942	846.73	944.63	225.73	1090.2	92.693	304.74	1018.9	878.66	-21.38	1074.5	1343.3	301.83	979.8	622.4	102.99	913.27	776.81	540.7	845.1	950.52	331.22	971.67	1568.8	264.05	924.09	322.72	181.6	839.02	1121.3	279.7	956.63	423.53	124.27	1272	34.288	331.6	1155.7	1586.3	282.72	840.35	788.48	567.29	760.4	234.32	185.6	1014.8	733.35	481.08	825.77	304.66	118.6	841.35	279.7	184.26	664.84	69.17	223.77	978.75	720.28	100.38	562.06	238.01	201.96	653.09	87.912	143.71	1086.7	905.91	16.253	621.73	224.02	155.35	844.11	1042.6	453.37	1068.7	77.145	390.76	698.95	46.463	202.66	1016.8	31.334	353.98	948.87	1244.8	32.816	1099	857.35	-34.495
